<mxfile type="github" version="12.6.2" host="www.draw.io" modified="2020-01-30T22:45:13.390Z" agent="Mozilla/5.0 (Windows NT 10.0; Win64; x64) AppleWebKit/537.36 (KHTML, like Gecko) Chrome/70.0.3538.102 Safari/537.36 Edge/18.18362" etag="ucmnuKDFkLPJkZrUAp1m">
  <diagram id="DUGcNqFL8XdSad_epkWO" name="Page-1">
    <mxGraphModel grid="1" dx="1102" dy="612" gridSize="10" guides="1" tooltips="1" connect="1" arrows="1" fold="1" page="1" pageScale="1" pageWidth="850" pageHeight="1100" math="0" shadow="0">
      <root>
        <mxCell id="0"/>
        <mxCell id="1" parent="0"/>
        <mxCell id="288GH-l1TSOmYe5aIAmR-1" value="" parent="1" vertex="1" style="verticalLabelPosition=bottom;verticalAlign=top;html=1;shadow=0;dashed=0;strokeWidth=1;shape=mxgraph.android.phone2;strokeColor=#c0c0c0;">
          <mxGeometry as="geometry" height="440" width="240" y="50" x="50"/>
        </mxCell>
        <mxCell id="288GH-l1TSOmYe5aIAmR-2" value="" parent="1" vertex="1" style="verticalLabelPosition=bottom;shadow=0;dashed=0;align=center;html=1;verticalAlign=top;strokeWidth=1;shape=mxgraph.mockup.graphics.simpleIcon;strokeColor=#999999;">
          <mxGeometry as="geometry" height="140" width="130" y="180" x="105"/>
        </mxCell>
        <mxCell id="288GH-l1TSOmYe5aIAmR-3" value="" parent="1" vertex="1" style="whiteSpace=wrap;html=1;shape=mxgraph.basic.roundRectCallout;dx=30;dy=15;size=5;boundedLbl=1;">
          <mxGeometry as="geometry" height="60" width="100" y="80" x="300"/>
        </mxCell>
        <mxCell id="288GH-l1TSOmYe5aIAmR-4" value="" parent="1" vertex="1" style="verticalLabelPosition=bottom;verticalAlign=top;html=1;shadow=0;dashed=0;strokeWidth=2;shape=mxgraph.android.navigation_bar_3_landscape;fillColor=#1A1A1A;strokeColor=#999999;">
          <mxGeometry as="geometry" height="30" width="220" y="410" x="60"/>
        </mxCell>
      </root>
    </mxGraphModel>
  </diagram>
</mxfile>
